<?xml version="1.0" standalone="no"?>
<!DOCTYPE svg PUBLIC "-//W3C//DTD SVG 20010904//EN"
 "http://www.w3.org/TR/2001/REC-SVG-20010904/DTD/svg10.dtd">
<svg version="1.0" xmlns="http://www.w3.org/2000/svg"
 width="688.000000pt" height="688.000000pt" viewBox="0 0 688.000000 688.000000"
 preserveAspectRatio="xMidYMid meet">

<g transform="translate(0.000000,688.000000) scale(0.100000,-0.100000)"
fill="#000000" stroke="none">
<path d="M3379 5824 c-70 -104 -98 -170 -106 -246 -9 -98 15 -167 82 -237 l53
-56 -5 -127 c-8 -173 23 -320 100 -473 59 -119 78 -184 79 -270 1 -99 -24
-169 -90 -256 -122 -160 -150 -221 -136 -296 10 -60 50 -120 98 -148 51 -30
80 -31 123 -5 73 44 72 120 -5 237 -83 128 -82 120 -26 207 26 42 51 75 56 74
4 -2 30 -29 57 -61 98 -116 146 -256 123 -356 -27 -118 -101 -213 -202 -260
-47 -22 -69 -26 -150 -26 -80 0 -103 4 -143 24 -117 58 -191 161 -203 281 -13
128 35 238 188 437 94 122 135 201 144 277 4 31 10 59 14 61 15 9 53 -101 58
-168 4 -60 2 -73 -27 -130 -19 -39 -61 -93 -113 -148 -46 -47 -105 -118 -133
-157 -44 -65 -50 -80 -53 -138 -9 -139 81 -256 214 -278 48 -8 115 7 140 31
15 16 13 18 -36 34 -65 21 -117 62 -155 124 -27 44 -30 56 -30 134 0 105 10
128 104 235 158 180 175 297 71 490 -37 70 -52 112 -65 181 -26 145 -60 236
-116 317 -16 22 -18 37 -13 95 5 57 3 77 -13 114 -40 89 -148 165 -275 193
-76 17 -215 29 -228 21 -15 -9 103 -233 159 -301 27 -34 68 -70 101 -88 48
-27 66 -31 135 -32 78 -2 80 -2 103 -35 40 -58 71 -124 92 -200 11 -41 20 -78
20 -82 0 -20 -118 95 -125 121 -10 43 -52 97 -93 119 -111 61 -236 51 -369
-29 -60 -36 -66 -52 -25 -66 16 -5 60 -29 98 -53 122 -76 174 -99 221 -99 46
0 106 20 133 45 14 13 21 11 57 -15 43 -32 100 -108 110 -148 13 -54 -3 -168
-34 -233 -87 -182 -201 -227 -425 -165 -179 49 -245 46 -471 -20 -66 -19 -137
-34 -160 -34 -33 0 -38 -2 -28 -12 22 -23 137 -13 246 21 163 52 257 52 425
-1 46 -14 94 -20 164 -21 l99 0 -33 -30 c-33 -30 -34 -30 -129 -24 -53 3 -118
13 -146 21 -93 30 -190 37 -263 21 -58 -14 -139 -51 -130 -61 2 -2 26 3 53 11
92 28 172 30 270 5 116 -29 119 -30 100 -57 -9 -13 -31 -24 -57 -28 -65 -10
-140 -36 -168 -57 -22 -17 -80 -99 -80 -113 0 -3 20 10 45 29 62 48 102 53
228 29 l29 -5 -22 -15 c-34 -24 -70 -110 -70 -169 0 -67 9 -73 32 -21 25 56
73 105 126 128 24 10 47 19 52 19 4 0 10 -35 12 -77 6 -101 39 -172 113 -242
75 -71 146 -102 249 -108 229 -15 410 140 424 363 l5 73 51 -19 c60 -23 121
-84 138 -142 14 -47 28 -33 28 28 0 49 -15 95 -47 147 -14 22 -23 40 -21 42
10 9 128 20 157 14 18 -4 53 -21 77 -38 l44 -31 -25 50 c-35 69 -83 99 -182
112 -79 10 -138 32 -129 47 7 11 127 48 196 61 61 11 153 4 215 -16 l40 -14
-24 20 c-67 57 -225 63 -380 16 -49 -15 -109 -26 -141 -26 l-57 0 38 -79 c25
-54 50 -88 75 -108 20 -15 53 -43 73 -61 l36 -34 -45 25 c-25 14 -63 30 -86
36 -38 10 -43 16 -68 73 -14 35 -53 99 -87 143 -86 114 -116 173 -61 124 79
-73 153 -81 307 -36 145 42 211 50 301 37 79 -12 261 -70 301 -96 27 -17 37
-18 27 -3 -14 23 -113 78 -189 104 -141 48 -280 48 -445 0 -106 -31 -192 -33
-238 -5 -39 24 -70 72 -77 120 -15 97 -31 153 -67 233 -25 56 -38 97 -34 110
3 12 23 42 44 66 l39 45 51 -22 c90 -39 157 -27 254 45 28 20 77 51 111 69
l60 32 -49 36 c-64 46 -123 66 -199 66 -72 0 -117 -13 -163 -47 -31 -23 -71
-88 -72 -115 -1 -7 -23 -37 -50 -67 l-50 -55 0 42 c0 60 40 160 95 237 l47 67
47 -8 c154 -27 260 32 358 201 66 114 112 208 106 218 -10 16 -192 0 -263 -22
-66 -21 -167 -76 -207 -113 -42 -39 -67 -106 -65 -176 0 -60 -2 -68 -38 -113
-47 -60 -93 -141 -111 -194 l-13 -40 -12 60 c-25 115 -13 309 20 327 102 57
159 186 136 308 -17 96 -134 300 -170 300 -5 0 -33 -34 -61 -76z m97 -26 c15
-18 41 -62 58 -98 35 -75 47 -183 26 -245 -11 -34 -74 -115 -89 -115 -3 0 -4
39 -3 87 4 80 -11 211 -27 240 -3 6 -6 -50 -6 -125 0 -75 -4 -154 -8 -176 l-8
-38 -25 23 c-13 13 -36 47 -50 76 -23 46 -26 62 -22 135 3 70 9 93 37 148 38
75 69 120 81 120 4 0 21 -15 36 -32z m624 -274 c0 -4 -24 -52 -52 -107 -61
-115 -125 -192 -183 -218 -42 -19 -130 -25 -154 -10 -21 13 28 69 137 158 51
41 91 77 88 80 -11 11 -145 -74 -203 -130 l-63 -60 0 37 c0 80 56 146 165 197
85 40 265 76 265 53z m-1122 -29 c34 -8 81 -24 103 -35 96 -50 168 -148 154
-211 l-7 -31 -23 34 c-13 19 -47 52 -77 75 -53 41 -137 88 -144 81 -2 -3 19
-22 48 -43 52 -40 168 -168 168 -185 0 -14 -79 -11 -123 4 -79 29 -146 100
-210 226 -53 104 -53 100 1 100 26 0 75 -7 110 -15z m162 -482 c39 -28 65 -61
57 -70 -3 -2 -19 3 -37 12 -31 16 -169 49 -176 42 -2 -2 37 -20 86 -41 104
-44 122 -60 94 -81 -26 -20 -77 -29 -119 -21 -25 5 -206 114 -233 140 -8 9 97
48 146 54 75 10 135 -2 182 -35z m815 16 c30 -11 55 -23 55 -27 -1 -4 -27 -24
-58 -44 -31 -21 -74 -49 -94 -64 -20 -14 -54 -28 -76 -31 -45 -6 -115 13 -109
30 2 7 46 33 98 60 89 45 92 47 49 41 -25 -3 -71 -16 -102 -29 -32 -12 -58
-21 -58 -18 0 3 7 18 17 33 39 67 168 90 278 49z m-857 -914 c11 -10 -31 -49
-81 -76 -56 -30 -60 -30 -150 -23 -61 5 -85 10 -72 15 11 4 31 8 44 8 39 1
106 39 121 67 14 24 17 25 75 19 33 -4 61 -9 63 -10z m797 -25 c33 -35 78 -49
155 -51 53 -1 52 -2 -33 -16 -80 -13 -91 -13 -113 2 -23 15 -64 71 -64 88 0
17 28 5 55 -23z m-371 -140 c69 -105 83 -163 47 -199 -26 -26 -57 -27 -99 -1
-76 46 -95 149 -45 241 14 27 29 49 32 48 3 0 32 -40 65 -89z m-468 33 c-10
-21 -27 -33 -58 -42 -24 -7 -59 -22 -78 -33 l-35 -21 31 32 c28 30 144 103
152 96 2 -2 -3 -16 -12 -32z m225 -219 c17 -33 45 -64 88 -96 64 -49 61 -58
-12 -37 -123 34 -194 199 -135 312 l23 42 5 -86 c4 -64 12 -97 31 -135z"/>
<path d="M3215 5683 c-45 -8 -192 -65 -215 -83 l-25 -20 25 0 c47 -1 230 64
236 83 7 22 5 24 -21 20z"/>
<path d="M3650 5672 c0 -15 9 -22 33 -27 17 -4 71 -21 120 -37 60 -20 92 -26
104 -20 14 8 13 11 -8 25 -28 18 -157 62 -211 72 -34 6 -38 5 -38 -13z"/>
<path d="M3670 5571 c0 -20 59 -45 84 -35 27 10 18 19 -34 36 -47 15 -50 15
-50 -1z"/>
<path d="M3145 5560 c-34 -15 -37 -19 -21 -25 27 -12 90 7 94 28 4 22 -20 21
-73 -3z"/>
<path d="M2643 5378 c-197 -205 -298 -463 -296 -753 2 -173 40 -332 73 -299 7
7 5 32 -7 80 -27 105 -24 382 5 485 46 170 152 356 266 470 40 39 55 61 50 72
-3 10 -9 17 -13 17 -4 0 -39 -33 -78 -72z"/>
<path d="M4175 5437 c-5 -12 8 -35 47 -80 143 -163 229 -336 258 -520 18 -107
8 -332 -17 -424 -18 -62 -18 -73 -6 -77 24 -9 30 0 47 71 85 356 -10 721 -253
975 -57 60 -71 70 -76 55z"/>
<path d="M2710 5293 c-156 -166 -246 -379 -257 -609 -8 -158 22 -324 59 -324
22 0 22 6 1 84 -12 44 -17 100 -17 201 1 123 4 151 28 229 51 167 121 292 229
410 40 43 51 76 27 76 -4 0 -36 -30 -70 -67z"/>
<path d="M4125 5341 c-5 -17 2 -31 30 -62 50 -55 119 -165 154 -242 82 -182
99 -381 50 -577 -17 -65 -17 -76 -5 -89 13 -13 17 -11 27 15 22 58 49 211 49
285 0 132 -41 303 -105 429 -25 51 -96 150 -163 229 -29 34 -30 34 -37 12z"/>
<path d="M1461 3205 c-106 -23 -186 -67 -260 -143 -140 -143 -194 -360 -141
-566 90 -353 441 -500 832 -348 l68 26 0 298 0 298 -185 0 -185 0 0 -120 0
-120 65 0 65 0 0 -80 0 -79 -42 -12 c-89 -24 -202 6 -266 70 -58 58 -77 114
-77 226 0 83 4 109 23 151 71 156 243 201 397 103 l49 -31 23 28 c37 46 123
173 123 181 0 11 -53 46 -116 77 -107 53 -244 68 -373 41z"/>
<path d="M3386 3204 c-335 -81 -501 -480 -340 -819 81 -172 241 -278 441 -292
253 -18 467 127 549 372 33 99 38 252 11 354 -52 194 -214 350 -405 390 -71
15 -184 13 -256 -5z m250 -267 c142 -73 190 -317 91 -464 -18 -26 -54 -61 -80
-77 -104 -64 -236 -38 -312 61 -44 58 -59 108 -59 203 -1 139 61 245 165 283
53 20 151 17 195 -6z"/>
<path d="M2080 2650 l0 -561 133 3 132 3 3 211 2 212 31 4 31 5 98 -196 c54
-108 106 -206 116 -219 19 -22 23 -23 176 -20 l157 3 -125 227 c-68 125 -124
232 -124 237 0 6 13 17 28 25 47 24 108 99 131 160 14 39 21 80 21 131 0 140
-59 238 -178 297 l-66 33 -283 3 -283 3 0 -561z m471 321 c38 -14 59 -49 59
-96 0 -78 -42 -105 -167 -105 l-93 0 0 103 c0 57 3 107 8 111 9 10 160 1 193
-13z"/>
<path d="M4090 3207 c0 -14 365 -1095 372 -1104 8 -10 47 -12 147 -10 l136 2
110 328 c60 180 113 327 116 327 4 0 11 -15 14 -32 8 -37 156 -493 187 -576
l20 -53 134 2 c84 1 137 6 143 13 4 6 24 58 44 116 19 58 101 296 182 530 81
234 149 433 152 443 5 16 -7 17 -145 17 l-151 0 -9 -32 c-28 -98 -205 -644
-211 -650 -3 -4 -44 117 -89 270 -45 152 -91 307 -103 345 l-20 67 -149 0
c-113 0 -150 -3 -150 -12 0 -7 -29 -103 -64 -213 -35 -110 -83 -260 -106 -334
l-43 -135 -37 120 c-53 166 -158 513 -166 547 l-6 27 -154 0 c-85 0 -154 -1
-154 -3z"/>
<path d="M1319 1887 c-281 -80 -372 -464 -162 -679 85 -86 231 -127 352 -98
58 14 158 75 167 102 4 13 -11 39 -47 83 -29 36 -54 65 -57 65 -2 0 -19 -13
-38 -30 -56 -49 -139 -52 -205 -7 -113 77 -100 309 22 372 55 29 148 14 200
-32 15 -12 22 -6 68 55 28 38 51 74 51 79 0 14 -65 58 -115 79 -52 21 -178 27
-236 11z"/>
<path d="M2007 1889 c-177 -42 -300 -226 -283 -426 15 -177 104 -294 265 -348
79 -26 198 -18 271 19 196 98 275 354 173 563 -75 152 -254 233 -426 192z
m178 -202 c58 -32 85 -91 85 -182 -1 -144 -86 -233 -203 -211 -43 8 -104 59
-122 103 -31 75 -14 214 33 267 44 49 141 60 207 23z"/>
<path d="M4837 1890 c-172 -44 -287 -203 -287 -397 0 -182 100 -325 262 -374
228 -70 456 74 486 306 33 264 -112 458 -353 471 -38 2 -87 -1 -108 -6z m184
-203 c74 -49 104 -195 60 -292 -39 -87 -128 -124 -217 -90 -138 53 -152 306
-20 386 45 28 133 26 177 -4z"/>
<path d="M2536 1562 c0 -180 2 -357 2 -394 l2 -68 95 0 95 0 2 208 3 207 35
-57 c19 -32 79 -125 133 -208 l99 -150 94 0 94 0 0 395 0 395 -100 0 -100 0 0
-202 c-1 -238 17 -241 -150 21 l-115 180 -95 0 -95 1 1 -328z"/>
<path d="M3280 1800 l0 -89 98 -3 97 -3 2 -300 1 -300 99 0 98 0 3 303 2 302
95 0 95 0 0 90 0 90 -295 0 -295 0 0 -90z"/>
<path d="M3912 1498 l3 -393 95 0 95 0 3 148 c2 144 3 147 25 147 18 0 34 -24
97 -148 l75 -147 108 -3 c59 -1 107 0 107 4 0 4 -38 78 -85 166 -47 87 -85
162 -85 167 0 5 13 14 29 21 66 27 104 101 104 200 0 78 -26 136 -77 175 -60
46 -112 55 -313 55 l-183 0 2 -392z m341 221 c31 -16 37 -28 37 -72 0 -51 -41
-77 -122 -77 l-58 0 0 80 0 80 61 0 c33 0 70 -5 82 -11z"/>
<path d="M5360 1495 l0 -395 245 0 245 0 0 95 0 95 -145 0 -145 0 -2 298 -3
297 -97 3 -98 3 0 -396z"/>
</g>
</svg>
